<?xml version="1.0" encoding="utf-8"?>
<!-- Generator: Adobe Illustrator 16.0.0, SVG Export Plug-In . SVG Version: 6.00 Build 0)  -->
<!DOCTYPE svg PUBLIC "-//W3C//DTD SVG 1.1//EN" "http://www.w3.org/Graphics/SVG/1.1/DTD/svg11.dtd">
<svg version="1.1" id="Capa_1" xmlns="http://www.w3.org/2000/svg" xmlns:xlink="http://www.w3.org/1999/xlink" x="0px" y="0px"
	 width="31.294px" height="25.366px" viewBox="0 0 31.294 25.366" style="enable-background:new 0 0 31.294 25.366;"
	 xml:space="preserve">
<path d="M29.063,3.044H2.233c-1.23,0-2.233,1-2.233,2.232v17.856c0,1.235,1.003,2.233,2.233,2.233h26.83
	c1.232,0,2.23-0.999,2.23-2.233V5.276C31.294,4.043,30.296,3.044,29.063,3.044z M11.334,22.67c-4.673,0-8.463-3.788-8.463-8.465
	c0-4.676,3.79-8.464,8.463-8.464c4.677,0,8.465,3.788,8.465,8.464C19.799,18.883,16.011,22.67,11.334,22.67z M27.895,7.787h-2.718
	c-0.811,0-1.466-0.656-1.466-1.462c0-0.812,0.655-1.467,1.466-1.467h2.718c0.807,0,1.464,0.656,1.464,1.467
	C29.358,7.131,28.701,7.787,27.895,7.787z"/>
<rect x="3.139" width="6.419" height="2.331"/>
<circle cx="11.246" cy="14.205" r="4.037"/>
<g>
</g>
<g>
</g>
<g>
</g>
<g>
</g>
<g>
</g>
<g>
</g>
<g>
</g>
<g>
</g>
<g>
</g>
<g>
</g>
<g>
</g>
<g>
</g>
<g>
</g>
<g>
</g>
<g>
</g>
</svg>
